<svg xmlns="http://www.w3.org/2000/svg" viewBox="0 0 2400 480" width="2400" height="480" role="img" aria-label="Northern Access Floors"><g transform="translate(0.000000,480.000000) scale(0.100000,-0.100000)" fill="#8b9096" fill-rule="evenodd" stroke="none"><path d="M21402 4655 c-24 -14 -55 -33 -70 -43 -15 -11 -55 -28 -90 -40 -35
-12 -80 -34 -100 -50 -45 -35 -81 -54 -147 -76 -27 -9 -70 -32 -94 -51 -24
-19 -73 -44 -108 -55 -77 -24 -98 -34 -145 -75 -21 -17 -66 -40 -100 -51 -34
-10 -83 -34 -108 -53 -25 -19 -79 -49 -121 -66 -42 -18 -96 -46 -120 -62 -24
-17 -71 -40 -103 -52 -32 -12 -84 -40 -115 -61 -31 -22 -85 -49 -121 -61 -36
-11 -88 -39 -117 -61 -31 -23 -79 -48 -117 -59 -36 -11 -87 -36 -113 -56 -27
-20 -83 -52 -127 -70 -43 -18 -86 -39 -95 -47 -9 -7 -44 -28 -77 -45 -139 -69
-134 -138 13 -181 49 -14 86 -33 119 -60 27 -22 52 -40 56 -40 26 0 124 -47
158 -75 22 -18 72 -45 111 -60 39 -15 92 -43 117 -63 26 -20 76 -47 112 -60
35 -13 83 -38 105 -56 51 -42 69 -51 133 -66 36 -8 68 -25 100 -52 44 -38 67
-51 141 -79 19 -7 57 -29 85 -48 28 -19 80 -47 116 -62 36 -14 89 -42 117 -62
29 -19 78 -45 109 -57 32 -11 71 -32 87 -46 38 -32 78 -52 138 -70 30 -9 69
-32 99 -59 30 -27 69 -50 99 -59 60 -18 103 -40 122 -62 25 -30 91 -54 152
-54 65 0 98 14 141 59 18 18 54 39 92 51 34 12 87 39 116 60 30 21 86 51 124
66 38 15 85 39 104 54 42 33 82 53 135 70 22 7 64 30 93 52 29 22 85 51 125
64 42 14 84 37 103 55 17 16 64 43 105 60 40 16 96 47 124 68 27 21 74 46 103
56 28 9 80 36 115 59 34 24 83 50 109 58 25 9 76 36 112 61 36 25 81 49 99 52
44 10 98 38 122 65 24 26 60 46 131 70 28 10 75 34 104 54 29 20 76 43 106 52
126 36 142 110 36 171 -26 14 -66 40 -90 56 -24 16 -71 40 -105 54 -34 14 -83
40 -108 59 -25 18 -80 46 -122 63 -42 16 -95 43 -117 61 -22 17 -73 42 -115
55 -48 14 -92 36 -120 59 -24 20 -76 50 -116 66 -40 16 -89 43 -110 60 -21 16
-73 43 -116 58 -43 15 -97 42 -118 59 -22 18 -74 45 -115 61 -41 15 -96 44
-121 64 -26 19 -68 40 -94 47 -61 15 -100 36 -149 77 -21 18 -67 43 -102 54
-35 12 -85 39 -111 60 -29 23 -77 47 -118 60 -39 13 -83 33 -100 45 -86 63
-176 74 -253 30z m159 3 c19 -6 51 -24 73 -40 21 -15 70 -38 108 -50 40 -13
86 -37 108 -55 21 -19 74 -47 117 -65 43 -17 92 -43 108 -58 35 -32 70 -51
140 -74 28 -9 72 -32 99 -51 26 -19 77 -44 113 -56 35 -11 85 -37 111 -57 26
-20 73 -44 105 -54 72 -22 92 -32 142 -73 22 -17 69 -42 105 -53 40 -14 86
-39 119 -66 33 -27 72 -49 100 -56 54 -13 115 -43 153 -75 15 -13 56 -33 92
-45 35 -11 90 -39 122 -62 32 -22 76 -47 99 -55 45 -15 218 -116 253 -147 50
-44 21 -88 -81 -122 -43 -14 -91 -37 -107 -51 -17 -14 -66 -40 -111 -58 -44
-19 -104 -52 -132 -73 -29 -21 -81 -49 -117 -62 -35 -12 -80 -35 -100 -50 -19
-16 -69 -42 -110 -60 -41 -17 -90 -43 -109 -57 -19 -15 -65 -39 -102 -54 -38
-15 -93 -46 -122 -68 -30 -23 -79 -50 -110 -60 -30 -11 -79 -38 -107 -60 -28
-22 -73 -47 -100 -55 -59 -18 -80 -29 -137 -72 -25 -19 -50 -34 -56 -34 -26
-1 -128 -49 -165 -79 -22 -17 -71 -43 -109 -57 -37 -14 -85 -39 -105 -55 -21
-16 -69 -42 -109 -57 -43 -16 -86 -42 -109 -64 -52 -49 -71 -58 -125 -58 -51
0 -93 18 -143 61 -17 16 -63 38 -100 49 -46 14 -82 33 -112 60 -38 34 -130 80
-160 80 -4 0 -30 16 -55 36 -26 19 -80 51 -121 69 -40 18 -93 47 -118 64 -24
17 -69 40 -100 51 -30 12 -79 37 -107 56 -28 20 -83 49 -121 64 -39 16 -85 42
-102 58 -37 36 -73 54 -146 76 -30 8 -74 31 -97 50 -24 18 -73 46 -110 61 -38
16 -84 40 -103 55 -47 36 -73 49 -129 66 -27 8 -71 32 -99 55 -28 22 -79 49
-112 61 -33 11 -84 38 -113 59 -30 23 -80 48 -118 59 -128 39 -133 98 -12 159
23 11 58 32 78 45 19 13 66 36 103 50 37 14 86 41 109 60 23 18 55 38 70 44
16 5 49 17 76 27 26 9 71 34 99 56 29 21 81 48 117 60 36 11 90 38 121 59 30
21 82 49 115 61 33 12 80 36 105 52 24 17 74 43 111 58 36 15 89 43 117 63 27
20 75 45 105 55 71 25 94 37 135 72 37 33 80 53 133 63 20 3 62 25 93 47 31
22 80 48 110 59 67 23 91 36 136 71 19 15 66 39 103 52 37 14 85 37 107 52 73
51 132 64 191 43z M9278 4090 c-90 -7 -128 -23 -148 -60 -12 -22 -17 -2511 -5
-2548 11 -37 41 -45 167 -43 164 2 191 16 225 115 16 46 17 103 18 581 0 583
-9 520 102 700 19 31 120 72 288 114 93 24 374 29 570 11 155 -15 288 -76 336
-154 37 -60 40 -96 42 -653 2 -548 2 -548 34 -615 42 -89 68 -103 179 -95 110
8 159 32 185 93 20 43 20 65 17 702 -4 733 1 685 -78 802 -83 124 -155 197
-213 215 -29 9 -74 32 -102 50 -67 44 -101 52 -290 66 -176 12 -656 5 -740
-12 -30 -5 -74 -26 -107 -48 -32 -21 -87 -47 -123 -56 -105 -29 -100 -45 -101
333 0 276 -3 326 -19 385 -19 70 -56 117 -93 117 -9 0 -26 2 -37 4 -11 2 -59
0 -107 -4z m171 -26 c52 -37 55 -60 61 -456 6 -445 -3 -418 127 -373 48 17
102 40 120 52 62 42 93 53 169 63 73 9 648 15 689 6 11 -2 54 -7 95 -11 71 -7
96 -16 205 -73 22 -11 59 -26 82 -32 76 -19 240 -246 264 -364 17 -82 25
-1235 9 -1295 -21 -80 -88 -118 -222 -123 -60 -3 -93 21 -127 88 -25 49 -25
49 -22 571 2 560 -1 614 -46 691 -55 93 -187 158 -348 171 -352 28 -584 9
-763 -64 -94 -38 -118 -59 -167 -146 -16 -29 -38 -67 -47 -84 -16 -27 -18 -82
-20 -575 -4 -689 11 -646 -216 -652 -186 -5 -164 -181 -162 1280 1 1291 1
1291 44 1314 48 28 241 36 275 12z M7358 3751 c-107 -35 -152 -115 -127 -230
12 -56 1 -109 -28 -132 -9 -8 -57 -16 -124 -19 -102 -5 -110 -7 -138 -35 -85
-81 -78 -273 12 -339 22 -16 49 -22 127 -26 162 -8 150 35 149 -514 0 -497 1
-512 54 -654 44 -117 140 -231 215 -257 26 -8 67 -31 91 -50 24 -19 57 -37 75
-39 131 -21 198 -26 368 -26 240 0 315 10 372 49 23 16 80 48 127 70 70 33 89
47 107 79 12 22 40 62 62 89 63 75 71 114 77 390 8 318 6 321 -206 310 -180
-8 -181 -10 -181 -253 0 -223 -3 -230 -102 -280 -178 -90 -509 -59 -585 55
-51 75 -54 107 -55 562 0 423 0 423 26 446 16 13 41 23 59 23 18 1 230 2 472
3 440 2 440 2 485 27 60 34 72 67 64 185 -12 186 12 179 -581 185 -574 6 -529
-9 -518 167 9 134 3 149 -78 189 -56 29 -167 41 -219 25z m174 -21 c95 -27
125 -95 97 -218 -10 -43 -9 -54 7 -88 36 -75 31 -74 536 -74 497 0 513 -2 544
-63 24 -45 30 -173 11 -219 -31 -74 -23 -72 -562 -78 -523 -5 -526 -6 -540
-63 -3 -12 -4 -211 -3 -442 3 -420 3 -420 32 -488 59 -140 130 -174 364 -176
183 -2 225 6 302 58 81 54 84 64 85 285 1 250 -11 237 240 239 120 1 126 -13
119 -280 -6 -269 -14 -309 -74 -387 -26 -34 -55 -76 -63 -93 -20 -38 -56 -64
-122 -88 -27 -10 -70 -32 -94 -48 -68 -46 -116 -56 -318 -62 -257 -9 -406 12
-507 73 -37 22 -81 44 -97 47 -19 4 -49 30 -89 76 -73 85 -80 99 -115 219 -27
95 -27 95 -31 570 -2 299 -8 484 -14 500 -17 41 -48 53 -155 59 -55 4 -110 12
-121 18 -57 32 -81 175 -44 260 32 75 55 87 174 90 151 3 171 25 161 177 -6
78 -4 96 13 126 37 69 155 100 264 70z M190 3370 c-77 -15 -136 -65 -171 -147
-17 -40 -18 -89 -18 -818 1 -470 4 -773 10 -769 5 3 18 22 28 43 19 36 20 70
21 790 1 753 1 753 23 800 33 69 81 93 173 88 85 -5 133 -27 166 -77 47 -70
118 -70 236 -1 116 68 180 76 572 76 399 0 423 -4 619 -88 114 -49 149 -68
170 -95 14 -19 45 -57 69 -85 84 -101 92 -180 92 -930 0 -657 2 -645 -77 -682
-72 -34 -210 -5 -269 56 -29 30 -29 30 -34 647 -6 730 7 662 -143 736 -120 59
-149 64 -422 72 -312 9 -399 -1 -545 -63 -234 -99 -223 -62 -230 -778 -6 -638
-2 -608 -91 -653 -114 -57 -212 -49 -318 24 -52 35 -52 35 -49 3 3 -31 6 -33
82 -55 188 -56 354 -7 385 113 5 22 10 260 11 568 1 622 5 650 93 704 33 20
186 79 267 103 72 21 574 17 663 -5 144 -36 247 -92 269 -147 7 -16 10 -229 9
-590 0 -311 2 -584 5 -608 14 -93 82 -145 207 -157 96 -9 144 9 178 68 24 42
24 42 27 639 2 555 1 605 -17 727 -25 162 -34 180 -165 321 -25 27 -229 122
-311 146 -83 23 -384 34 -650 24 -271 -10 -313 -18 -412 -78 -102 -62 -147
-60 -210 8 -57 62 -150 88 -243 70z M3075 3370 c-180 -8 -205 -15 -337 -86
-115 -61 -205 -141 -234 -208 -10 -22 -35 -66 -55 -96 -29 -41 -41 -72 -49
-125 -16 -95 -22 -493 -11 -717 9 -182 9 -182 70 -303 33 -66 72 -133 87 -150
14 -16 42 -49 60 -71 36 -43 57 -55 134 -74 25 -6 75 -29 111 -51 97 -58 152
-62 714 -56 513 6 550 9 661 65 33 16 84 37 114 47 72 23 202 146 226 215 9
25 39 92 68 149 51 105 51 105 54 479 3 413 0 444 -52 531 -19 31 -42 83 -51
116 -12 41 -28 69 -50 90 -93 86 -150 126 -256 179 -117 58 -117 58 -280 66
-188 10 -702 10 -924 0z m1087 -32 c26 -9 59 -25 75 -36 15 -11 57 -31 92 -46
35 -14 85 -45 112 -68 27 -24 62 -54 79 -68 22 -18 35 -41 46 -84 8 -32 34
-94 56 -136 50 -96 57 -148 57 -475 1 -319 -7 -383 -62 -503 -24 -53 -52 -119
-62 -147 -13 -35 -40 -72 -87 -121 -74 -77 -59 -69 -326 -165 -80 -29 -226
-39 -630 -44 -474 -5 -563 4 -659 65 -24 16 -75 36 -113 45 -66 16 -72 20
-135 90 -44 49 -85 111 -125 188 -75 145 -79 174 -79 593 -1 377 8 454 61 542
19 31 44 77 56 102 58 123 296 259 497 284 17 2 271 2 565 1 451 -1 542 -4
582 -17z M3150 2991 c-135 -11 -231 -64 -306 -168 -67 -94 -66 -88 -66 -403 1
-310 0 -303 63 -412 35 -60 48 -73 88 -89 25 -11 76 -34 112 -51 53 -24 78
-30 125 -29 32 1 88 2 124 1 751 -6 688 -9 770 33 41 21 86 44 100 50 30 15
106 165 121 240 12 68 12 426 -2 502 -6 34 -27 95 -47 136 -34 68 -42 77 -107
116 -121 74 -125 75 -530 78 -198 1 -398 0 -445 -4z m751 -20 c101 -9 220 -58
277 -115 100 -98 125 -603 40 -816 -37 -93 -30 -87 -173 -148 -88 -38 -250
-48 -520 -31 -227 13 -245 14 -330 4 -65 -7 -76 -5 -150 24 -145 58 -146 58
-198 152 -48 86 -48 86 -50 375 -2 289 -2 289 28 343 62 112 168 191 283 211
64 11 674 11 793 1z M5715 3371 c-162 -7 -164 -8 -273 -84 -66 -47 -104 -42
-161 20 -54 59 -95 71 -185 54 -107 -20 -159 -67 -176 -162 -14 -78 -7 -1655
8 -1691 20 -48 46 -57 184 -60 149 -4 161 2 215 98 33 59 33 59 32 599 -1 540
-1 540 40 627 41 87 41 87 149 140 107 53 107 53 358 52 250 0 250 0 333 -49
109 -64 113 -71 123 -216 9 -132 15 -148 82 -232 53 -64 92 -81 171 -75 72 6
98 26 137 105 33 67 33 69 31 204 -3 293 -85 470 -263 570 -124 70 -143 78
-195 89 -67 13 -424 20 -610 11z m585 -26 c41 -8 105 -34 173 -70 216 -115
282 -250 290 -595 2 -110 1 -117 -28 -175 -39 -77 -71 -100 -138 -100 -63 1
-101 22 -143 79 -55 74 -64 100 -73 221 -10 129 -26 170 -79 196 -18 10 -51
30 -74 45 -49 34 -129 42 -398 40 -175 -1 -175 -1 -278 -50 -120 -58 -117 -56
-176 -171 -46 -89 -46 -89 -44 -631 1 -541 1 -541 -24 -585 -47 -80 -56 -84
-178 -84 -133 0 -162 7 -181 42 -18 36 -27 1644 -10 1704 22 75 84 122 179
135 72 9 97 0 154 -58 67 -66 111 -65 215 5 80 55 127 64 349 66 76 1 140 3
141 5 8 8 266 -7 323 -19z M12170 3370 c-90 -10 -121 -21 -169 -59 -20 -16
-63 -42 -96 -57 -66 -32 -102 -64 -192 -176 -68 -86 -78 -109 -93 -223 -5 -44
-16 -116 -25 -160 -20 -109 -20 -461 0 -570 9 -44 20 -116 25 -160 14 -104 25
-137 56 -166 15 -13 40 -44 57 -69 48 -71 137 -157 181 -175 23 -10 79 -34
126 -56 131 -59 150 -61 650 -66 535 -5 609 1 707 60 32 19 82 43 110 52 54
17 123 77 227 200 69 81 76 100 76 220 0 173 -19 189 -222 183 -142 -4 -157
-12 -210 -119 -59 -117 -107 -146 -293 -175 -112 -18 -397 -24 -630 -13 -151
6 -151 6 -263 63 -124 64 -145 84 -169 165 -24 83 -22 145 7 176 23 25 23 25
689 26 366 0 751 4 854 7 252 9 237 -7 237 255 -1 274 -8 315 -76 450 -75 147
-165 250 -241 274 -29 9 -73 34 -99 55 -25 20 -62 43 -82 49 -45 15 -1025 22
-1142 9z m935 -9 c202 -9 207 -10 281 -66 24 -18 68 -41 98 -49 42 -13 62 -25
83 -53 16 -20 47 -57 71 -83 23 -26 42 -49 42 -52 0 -3 20 -48 44 -99 60 -128
68 -180 70 -416 1 -272 33 -246 -312 -255 -147 -4 -528 -7 -848 -6 -406 0
-587 -3 -601 -11 -61 -32 -52 -224 13 -293 35 -36 179 -122 240 -143 62 -21
659 -21 816 0 163 21 258 82 299 191 37 95 76 114 232 110 147 -4 164 -22 166
-171 1 -116 -7 -131 -156 -296 -76 -84 -124 -119 -163 -119 -11 0 -54 -18 -97
-39 -120 -60 -169 -66 -568 -66 -546 0 -608 6 -755 69 -41 18 -94 38 -117 46
-67 21 -275 249 -292 320 -44 181 -57 631 -26 898 20 179 24 190 116 303 86
105 125 139 195 169 26 11 60 32 77 46 42 36 68 45 172 59 105 15 630 18 920
6z M12359 2989 c-156 -10 -173 -19 -315 -155 -46 -44 -51 -129 -10 -164 21
-17 1249 -16 1304 1 60 19 66 62 23 147 -44 85 -99 130 -186 151 -127 29 -535
39 -816 20z m672 -19 c183 -19 241 -46 301 -139 38 -61 38 -114 1 -138 -25
-17 -70 -18 -613 -19 -322 0 -592 -4 -601 -8 -24 -11 -86 19 -94 44 -15 49 3
85 78 152 95 85 106 91 217 104 121 15 576 17 711 4z M14935 3371 c-155 -8
-203 -20 -255 -60 -79 -62 -101 -64 -163 -17 -74 56 -85 60 -194 60 -118 1
-149 -13 -171 -80 -17 -49 -18 -1695 -1 -1757 16 -61 53 -77 177 -77 127 0
166 14 190 67 15 34 18 98 22 613 5 534 6 578 24 612 35 71 93 124 194 180 97
53 97 53 342 52 276 0 293 -4 387 -75 82 -62 86 -72 94 -234 11 -217 32 -244
189 -253 188 -10 219 51 202 389 -10 195 -15 210 -101 348 -57 89 -65 97 -134
120 -33 12 -83 37 -111 56 -29 20 -72 39 -101 44 -72 13 -426 20 -590 12z
m595 -30 c19 -6 60 -27 90 -46 30 -20 73 -40 95 -46 62 -17 95 -40 117 -83 11
-22 37 -64 58 -95 53 -79 58 -103 65 -316 11 -297 -4 -328 -162 -333 -164 -5
-182 16 -194 228 -4 74 -13 150 -19 167 -15 40 -124 130 -183 150 -57 20 -450
31 -526 14 -103 -22 -246 -121 -309 -214 -35 -52 -40 -138 -40 -729 0 -606 10
-578 -194 -578 -141 0 -157 11 -168 121 -4 41 -7 432 -6 869 1 783 1 796 22
830 31 53 55 62 159 57 96 -4 117 -11 162 -53 60 -56 104 -57 174 -4 60 45 88
56 174 70 76 12 638 4 685 -9z M17090 3370 c-240 -10 -263 -15 -395 -95 -68
-42 -116 -35 -173 24 -58 59 -78 66 -204 66 -113 0 -138 -13 -175 -85 -23 -44
-23 -44 -23 -782 0 -618 -2 -752 -15 -827 -31 -176 11 -231 175 -231 142 0
226 30 263 94 9 16 13 170 17 606 6 664 4 649 87 704 45 30 216 91 313 112 88
19 464 19 580 0 96 -15 253 -75 288 -110 39 -39 42 -81 41 -677 -1 -513 1
-580 15 -608 22 -43 110 -99 177 -113 102 -21 160 6 206 95 26 52 26 52 24
627 -3 773 -8 804 -160 995 -38 48 -58 63 -107 82 -32 13 -95 41 -139 63 -118
59 -362 78 -795 60z m-690 -21 c41 -9 61 -21 105 -65 74 -75 126 -74 252 2 87
52 167 65 423 71 328 7 558 -7 635 -39 33 -14 89 -38 125 -53 143 -59 143 -59
257 -219 13 -17 32 -75 45 -131 22 -97 23 -120 26 -705 3 -665 4 -656 -57
-714 -69 -66 -233 -30 -304 66 -19 26 -20 44 -21 620 -1 706 8 657 -131 727
-143 72 -209 82 -545 77 -230 -3 -274 -6 -330 -24 -118 -36 -230 -90 -273
-130 -59 -56 -60 -72 -67 -697 -6 -647 0 -608 -88 -648 -65 -29 -206 -36 -266
-13 -57 22 -70 52 -61 138 3 35 10 414 14 843 4 429 11 791 15 805 28 83 119
116 246 89z M19415 1701 c-185 -79 -265 -138 -265 -195 0 -43 21 -59 111 -86
36 -11 87 -36 112 -55 26 -20 72 -45 104 -57 32 -12 83 -38 113 -58 30 -20 80
-47 110 -59 31 -12 81 -39 112 -60 31 -21 82 -48 115 -61 32 -13 86 -43 120
-66 35 -23 86 -50 113 -59 28 -9 70 -32 94 -50 54 -41 71 -50 132 -71 27 -9
72 -33 99 -55 28 -21 82 -51 121 -67 39 -16 86 -40 105 -55 19 -14 66 -39 104
-55 39 -15 91 -44 118 -65 26 -20 72 -44 103 -53 32 -11 75 -35 105 -61 34
-29 71 -49 117 -62 37 -11 83 -33 102 -49 97 -80 172 -83 254 -12 20 18 69 44
110 60 40 15 89 39 108 54 20 14 68 42 108 62 41 19 92 48 115 64 24 16 73 41
111 55 38 14 98 45 134 69 36 24 88 51 116 60 28 9 69 32 90 50 44 37 81 58
139 76 22 7 59 28 83 48 24 19 77 47 117 62 41 15 96 44 123 63 26 20 73 45
104 57 31 11 76 36 100 55 23 19 71 44 105 56 34 11 77 31 95 44 70 52 95 66
153 85 33 11 80 36 104 55 24 19 73 44 110 55 92 29 111 43 111 83 0 37 -22
62 -105 118 -77 52 -241 119 -290 119 -69 0 -230 -66 -291 -120 -18 -15 -64
-37 -103 -49 -48 -15 -85 -34 -111 -57 -22 -20 -72 -49 -112 -66 -40 -16 -91
-43 -112 -60 -22 -17 -69 -44 -105 -58 -36 -15 -89 -43 -118 -63 -29 -19 -76
-43 -105 -53 -29 -9 -80 -36 -114 -59 -34 -24 -88 -53 -119 -64 -32 -12 -76
-37 -98 -56 -22 -19 -63 -42 -91 -51 -70 -23 -104 -41 -149 -79 -69 -59 -218
-91 -387 -82 -132 7 -164 17 -247 74 -37 25 -94 55 -126 66 -32 10 -77 35
-100 53 -46 37 -77 53 -151 80 -27 9 -65 31 -85 49 -45 40 -65 51 -140 74 -33
10 -78 33 -101 51 -22 18 -73 46 -113 62 -40 17 -88 43 -108 59 -20 15 -68 40
-105 55 -38 15 -91 43 -118 62 -28 19 -81 47 -119 63 -37 16 -86 42 -108 59
-59 47 -194 103 -259 107 -46 3 -70 -3 -145 -36z M13469 1215 c-117 -20 -131
-33 -163 -158 -14 -58 -33 -88 -71 -117 -85 -63 -90 -127 -16 -190 73 -62 75
-67 69 -329 -5 -229 -3 -252 30 -278 26 -21 80 -16 106 10 24 24 24 24 19 260
-5 256 0 292 44 327 21 16 34 19 83 13 56 -5 60 -4 89 25 39 39 41 83 6 117
-21 22 -33 25 -99 25 -89 0 -116 19 -116 80 0 51 22 66 105 75 156 15 219 80
131 135 -39 23 -100 25 -217 5z M13874 1190 c-47 -15 -68 -43 -60 -82 3 -18
10 -51 14 -73 4 -22 4 -64 1 -93 -4 -30 -4 -181 0 -335 4 -161 3 -305 -2 -335
-15 -86 17 -132 93 -132 76 0 108 45 90 126 -9 35 -10 167 -5 464 7 396 6 416
-11 438 -22 26 -74 36 -120 22z M14470 930 c-69 -23 -180 -81 -198 -105 -101
-129 -113 -441 -21 -582 82 -126 113 -135 429 -136 245 -1 270 4 362 66 110
74 110 73 106 342 -4 298 0 289 -153 364 -110 53 -110 53 -305 56 -107 2 -206
0 -220 -5z m376 -131 c50 -21 119 -81 140 -120 20 -40 19 -231 -2 -315 -27
-105 -23 -104 -303 -104 -267 0 -271 1 -305 97 -8 22 -28 60 -45 83 -34 47
-42 111 -19 153 21 42 204 213 239 225 50 16 242 4 295 -19z M15630 930 c-59
-8 -222 -83 -251 -116 -36 -42 -44 -94 -44 -294 0 -242 8 -271 92 -328 119
-81 129 -83 280 -87 322 -7 448 17 496 92 114 180 112 175 112 328 0 140 0
140 -40 213 -51 93 -60 101 -180 155 -100 46 -100 46 -255 45 -85 -1 -180 -4
-210 -8z m342 -118 c14 -6 39 -27 55 -47 15 -20 50 -50 76 -67 61 -39 67 -55
67 -184 0 -104 0 -104 -63 -177 -63 -72 -63 -72 -309 -75 -284 -3 -268 -8
-299 105 -25 89 -26 260 -3 309 9 19 36 47 60 63 23 16 56 39 72 51 16 12 44
25 61 29 50 10 253 5 283 -7z M16830 930 c-25 -5 -79 -22 -122 -39 -53 -22
-93 -31 -131 -31 -96 0 -97 -4 -97 -302 0 -151 -4 -267 -11 -294 -19 -76 16
-124 91 -124 72 0 108 46 95 122 -4 24 -9 108 -11 188 -2 80 -4 158 -5 174 -2
33 22 58 134 139 82 59 115 62 180 12 25 -19 70 -45 100 -59 57 -25 76 -49 91
-111 17 -68 59 -83 100 -34 63 75 -5 242 -129 315 -38 22 -191 57 -230 53 -5
-1 -30 -5 -55 -9z M17514 889 c-128 -69 -137 -91 -113 -266 21 -157 38 -164
375 -156 317 8 328 4 341 -108 5 -43 3 -53 -17 -74 -23 -25 -23 -25 -261 -25
-262 0 -277 3 -309 55 -57 92 -140 79 -140 -23 0 -44 3 -50 65 -109 38 -36 79
-66 99 -71 42 -12 527 -4 578 9 133 34 183 217 105 381 -44 91 -45 103 -12
164 29 54 32 111 10 154 -9 17 -17 30 -18 30 -1 0 -40 14 -87 31 -153 55 -167
57 -352 57 -175 -1 -175 -1 -264 -49z m472 -89 c88 -43 175 -153 145 -183 -15
-15 -542 -12 -570 3 -67 35 2 159 105 190 63 18 274 12 320 -10z"/></g><g transform="translate(0.000000,480.000000) scale(0.100000,-0.100000)" fill="#003366" fill-rule="evenodd" stroke="none"><path d="M21470 4623 c-8 -3 -34 -19 -57 -35 -24 -16 -75 -42 -114 -58 -39
-16 -81 -38 -93 -49 -21 -20 -69 -43 -159 -75 -26 -10 -65 -33 -88 -52 -22
-18 -59 -38 -82 -44 -92 -24 -114 -34 -160 -72 -29 -25 -74 -48 -118 -63 -42
-13 -84 -35 -102 -53 -35 -33 -72 -53 -132 -72 -22 -7 -62 -29 -90 -50 -27
-21 -80 -47 -117 -59 -38 -13 -88 -39 -116 -62 -33 -26 -70 -44 -113 -55 -79
-20 -106 -34 -143 -73 -21 -22 -53 -38 -111 -56 -52 -16 -90 -34 -105 -51 -31
-32 -63 -49 -138 -73 -69 -22 -216 -112 -220 -135 -6 -28 16 -45 84 -65 39
-12 80 -33 106 -55 26 -23 66 -44 108 -56 42 -13 82 -34 113 -60 27 -22 71
-46 97 -54 60 -18 83 -30 139 -72 24 -19 68 -41 98 -51 30 -9 71 -31 91 -49
46 -39 84 -58 147 -73 34 -9 63 -25 96 -56 35 -33 64 -49 118 -65 48 -14 85
-33 115 -59 28 -24 71 -48 113 -62 37 -12 86 -37 107 -55 21 -18 71 -45 110
-60 39 -15 89 -42 110 -61 33 -27 128 -73 154 -73 4 0 32 -20 62 -45 36 -30
75 -51 112 -61 35 -10 80 -34 114 -60 45 -35 65 -44 95 -44 l39 0 44 40 c24
23 70 51 102 64 33 12 90 44 127 69 38 26 75 47 83 47 19 0 77 30 141 73 29
19 76 43 105 53 29 9 80 36 114 60 35 23 87 49 117 58 30 9 74 31 96 50 22 19
62 42 88 51 95 34 125 49 141 73 18 27 56 48 122 68 27 8 70 32 96 54 28 23
76 49 111 61 35 11 86 39 114 61 32 25 76 47 120 60 48 15 84 34 113 59 24 21
72 49 107 62 35 12 88 39 117 59 29 20 77 44 107 52 56 17 89 40 82 60 -2 6
-17 19 -33 29 -16 10 -56 35 -90 56 -33 21 -78 44 -100 51 -58 19 -115 49
-151 81 -18 15 -52 33 -75 40 -54 14 -112 44 -158 80 -19 15 -58 34 -87 42
-65 19 -88 32 -137 73 -21 18 -67 43 -101 54 -34 11 -86 39 -116 61 -31 23
-81 48 -119 59 -38 11 -88 36 -120 60 -30 22 -75 47 -101 54 -58 18 -84 31
-131 68 -20 16 -69 40 -108 53 -41 14 -88 39 -112 59 -22 20 -62 43 -87 52
-25 9 -59 21 -74 27 -16 5 -49 27 -74 47 -26 22 -68 44 -101 54 -31 9 -80 32
-108 51 -51 35 -104 50 -134 38z M9280 4034 c-41 -9 -71 -22 -82 -35 l-18 -21
0 -1125 c0 -802 -3 -1151 -12 -1214 l-11 -87 17 -27 18 -27 42 7 c22 4 72 9
110 10 l69 2 19 22 c10 13 18 33 19 45 0 11 1 257 2 546 l2 525 18 40 c10 22
33 56 51 75 19 19 43 54 55 77 22 45 33 55 126 110 105 62 126 66 477 70 382
6 468 -2 545 -49 127 -77 179 -129 205 -207 9 -27 13 -180 15 -596 1 -308 2
-570 2 -582 1 -12 13 -35 27 -52 30 -36 61 -39 151 -16 40 10 67 24 86 45 l27
30 0 563 0 562 -20 87 c-23 104 -72 206 -145 303 -68 91 -69 92 -148 110 -36
8 -99 28 -139 44 -121 49 -175 54 -510 53 -170 -1 -326 -6 -349 -11 -22 -5
-66 -25 -97 -44 -32 -19 -82 -42 -113 -51 -34 -10 -76 -32 -105 -56 -62 -51
-113 -55 -141 -13 l-18 27 -1 415 -2 415 -26 23 c-30 26 -51 27 -146 7z M7380
3694 c-19 -8 -43 -25 -52 -37 l-18 -22 6 -110 5 -110 -18 -35 c-10 -19 -34
-43 -53 -53 l-35 -18 -85 6 c-52 4 -96 2 -113 -4 -37 -14 -56 -61 -59 -148 -5
-114 34 -150 149 -139 81 8 143 -8 180 -46 l28 -29 2 -485 1 -485 17 -95 c13
-67 25 -106 46 -136 16 -24 42 -64 59 -89 34 -53 44 -58 255 -126 l150 -48
120 -3 c69 -2 168 3 232 12 l112 14 63 35 c35 20 82 40 106 47 58 15 100 57
168 165 72 116 86 168 83 320 -2 66 1 147 5 181 l8 60 -24 29 -25 28 -92 -2
c-95 -2 -133 -10 -148 -33 -4 -7 -8 -85 -9 -173 -1 -171 -13 -255 -42 -294
-10 -14 -49 -41 -87 -60 l-68 -36 -221 0 -221 0 -50 25 c-54 27 -90 74 -159
203 l-36 69 0 442 0 442 16 22 c32 47 32 47 551 52 l492 5 28 21 28 21 3 59
c4 84 -15 135 -58 156 l-34 17 -443 0 -444 -1 -54 26 -54 27 -17 44 c-12 33
-15 58 -10 97 4 29 10 71 13 93 l5 41 -26 26 c-24 23 -92 49 -128 48 -7 -1
-29 -8 -48 -16z M193 3320 c-12 -5 -29 -19 -37 -32 l-15 -23 -2 -858 -2 -858
21 -22 c31 -30 84 -28 155 7 68 33 90 61 89 119 0 23 0 245 0 492 l-1 450 20
80 c31 126 48 171 72 193 49 45 220 134 286 148 99 21 686 20 780 -1 89 -21
227 -112 255 -168 l18 -38 -1 -593 c-1 -373 2 -602 8 -619 15 -39 52 -58 135
-69 92 -13 121 -6 142 34 l16 31 -1 635 c-2 608 -6 705 -32 755 -15 26 -67 92
-129 158 l-45 49 -135 46 c-228 77 -221 75 -502 81 -356 7 -403 -1 -693 -121
-60 -25 -124 -46 -141 -46 -36 0 -67 29 -83 81 -24 74 -109 117 -178 89z
M5865 3320 l-230 -5 -50 -26 c-162 -86 -178 -93 -230 -97 l-54 -4 -60 62 -60
63 -33 -7 c-57 -11 -122 -50 -146 -86 l-23 -34 3 -807 3 -807 19 -21 c12 -13
31 -21 53 -21 19 0 54 -5 79 -11 56 -14 93 -1 119 44 l19 31 -3 536 c-1 306 2
548 7 566 6 17 25 51 43 76 19 25 46 68 61 96 l27 51 68 40 c109 64 150 71
445 71 201 0 266 -3 293 -14 38 -16 130 -82 158 -114 24 -27 55 -127 72 -236
17 -106 59 -186 112 -211 l34 -16 34 11 c76 25 92 95 76 336 -16 243 -22 263
-113 350 -40 39 -89 76 -108 83 -19 8 -75 32 -124 54 l-89 40 -86 6 c-47 3
-190 4 -316 1z M12182 3315 c-34 -8 -88 -29 -120 -48 -31 -19 -75 -41 -96 -48
-22 -8 -63 -36 -92 -62 -70 -64 -176 -199 -192 -244 -16 -49 -27 -636 -14
-844 l9 -157 19 -29 c51 -80 96 -135 169 -209 l80 -81 70 -13 c39 -7 115 -27
170 -45 142 -46 302 -59 670 -53 307 5 336 9 462 62 32 13 82 26 112 30 30 4
64 12 75 18 31 15 129 121 197 212 l59 78 0 74 c0 83 -11 120 -37 128 -10 3
-61 6 -114 8 l-97 3 -20 -18 c-11 -10 -29 -45 -41 -78 l-22 -59 -74 -64 c-54
-46 -91 -68 -132 -81 l-58 -18 -423 -4 c-304 -4 -437 -2 -470 7 -26 6 -75 33
-112 59 -36 27 -79 56 -96 64 -75 38 -104 111 -104 257 0 90 10 123 43 144
l23 16 846 3 847 3 22 19 22 20 -6 175 c-6 182 -15 232 -60 336 -14 32 -33 84
-41 115 -9 30 -25 64 -37 75 -12 10 -37 42 -54 69 -44 67 -51 72 -128 88 -43
10 -77 24 -99 42 -18 15 -49 35 -68 44 l-35 16 -495 2 c-391 2 -508 -1 -558
-12z m868 -285 c181 -11 228 -26 292 -93 56 -59 118 -175 118 -223 0 -44 -35
-83 -85 -94 -22 -5 -330 -10 -692 -10 l-652 0 -26 23 c-34 29 -48 88 -34 153
l10 51 89 81 c48 45 101 87 117 93 62 25 588 37 863 19z M3025 3313 c-41 -6
-126 -33 -150 -49 -11 -7 -53 -22 -92 -33 l-73 -22 -75 -66 c-56 -50 -79 -77
-91 -112 -10 -25 -29 -75 -45 -111 -15 -36 -34 -89 -43 -118 l-15 -52 0 -338
c-1 -364 3 -402 53 -486 14 -24 34 -66 46 -95 11 -28 43 -82 71 -118 28 -37
53 -73 56 -80 9 -22 54 -40 118 -48 37 -4 80 -18 114 -37 29 -16 92 -38 140
-48 l86 -18 320 0 320 -1 135 20 c74 11 191 35 260 55 69 19 142 39 163 45 26
7 60 32 107 79 75 75 94 104 104 165 4 22 25 82 47 134 49 115 59 187 59 441
0 253 -11 336 -56 427 -24 48 -39 94 -43 135 -8 76 -22 103 -63 124 -17 9 -54
35 -83 59 -34 27 -71 47 -104 55 -28 7 -68 23 -88 37 -21 14 -56 32 -78 41
l-40 16 -515 2 c-283 1 -528 0 -545 -3z m896 -282 l137 -8 53 -33 c107 -67
136 -97 180 -184 l41 -83 10 -114 c5 -63 8 -193 6 -289 l-3 -175 -27 -55 c-15
-30 -45 -84 -66 -120 l-38 -65 -55 -30 c-30 -16 -68 -40 -82 -52 -62 -49 -179
-55 -817 -41 l-175 3 -45 23 c-25 12 -79 41 -120 65 l-75 42 -47 70 c-65 96
-70 128 -66 468 l3 282 27 55 c34 69 143 181 205 212 l48 23 115 6 c176 9 639
9 791 0z M14885 3313 c-64 -14 -129 -41 -193 -79 -96 -58 -132 -59 -210 -4
l-57 40 -77 11 -78 11 -25 -16 c-14 -10 -30 -28 -35 -42 -15 -38 -13 -1632 1
-1673 6 -18 21 -36 33 -40 17 -6 118 -7 188 -2 10 0 25 15 33 32 l16 30 3 567
c2 388 7 578 15 603 6 20 24 54 40 77 28 38 158 138 233 179 l33 18 300 0 300
0 39 -18 c64 -28 146 -97 168 -141 l21 -41 1 -140 1 -140 18 -27 c10 -14 25
-29 32 -32 22 -8 181 -10 194 -2 6 4 19 22 28 39 l16 32 -2 164 c-2 188 -10
237 -50 295 -16 22 -42 68 -59 102 -32 64 -59 84 -132 99 -19 4 -67 25 -106
46 l-71 39 -94 10 c-92 9 -485 12 -524 3z M16263 3310 c-12 -5 -30 -21 -40
-37 l-18 -27 -2 -756 c-1 -482 -6 -783 -13 -831 -13 -94 -3 -123 48 -140 73
-24 209 17 237 72 l15 28 0 495 0 494 19 95 c10 52 26 108 35 126 16 30 29 40
146 111 144 87 181 93 615 88 l330 -4 40 -16 c53 -20 185 -105 207 -132 37
-46 43 -131 43 -631 -1 -264 -3 -515 -5 -558 l-5 -79 30 -26 c17 -15 63 -38
103 -51 l72 -23 31 12 c16 7 37 27 46 44 l16 31 -2 640 c-1 373 -6 659 -12
685 -11 52 -119 222 -158 249 -14 10 -57 28 -96 40 -38 13 -107 38 -152 57
-102 42 -214 54 -503 54 -262 0 -339 -12 -490 -78 -184 -79 -253 -98 -296 -79
-12 5 -32 32 -45 60 -13 28 -36 60 -51 70 -30 22 -111 32 -145 17z"/></g><g transform="translate(0.000000,480.000000) scale(0.100000,-0.100000)" fill="#008ac1" fill-rule="evenodd" stroke="none"><path d="M21447 4656 c-21 -8 -56 -26 -77 -41 -22 -15 -70 -38 -107 -52 -37
-13 -84 -37 -103 -52 -45 -35 -69 -48 -136 -71 -30 -11 -79 -37 -110 -59 -31
-22 -73 -44 -93 -47 -53 -10 -96 -30 -133 -63 -41 -35 -64 -47 -135 -72 -30
-10 -78 -35 -105 -55 -28 -20 -81 -48 -117 -63 -37 -15 -87 -41 -111 -58 -25
-16 -72 -40 -105 -52 -33 -12 -85 -40 -115 -61 -31 -21 -85 -48 -121 -59 -36
-12 -88 -39 -117 -60 -28 -22 -73 -47 -99 -56 -27 -10 -60 -22 -76 -27 -15 -6
-47 -26 -70 -44 -23 -19 -72 -46 -109 -60 -37 -14 -84 -37 -103 -50 -20 -13
-55 -34 -78 -45 -121 -61 -116 -120 12 -159 38 -11 88 -36 118 -59 29 -21 80
-48 113 -59 33 -12 84 -39 112 -61 28 -23 72 -47 99 -55 56 -17 82 -30 129
-66 19 -15 65 -39 103 -55 37 -15 86 -43 110 -61 23 -19 67 -42 97 -50 73 -22
109 -40 146 -76 17 -16 63 -42 102 -58 38 -15 93 -44 121 -64 28 -19 77 -44
107 -56 31 -11 76 -34 100 -51 25 -17 78 -46 118 -64 41 -18 95 -50 121 -69
25 -20 51 -36 55 -36 30 0 122 -46 160 -80 30 -27 66 -46 112 -60 37 -11 83
-33 100 -49 50 -43 92 -61 143 -61 54 0 73 9 125 58 23 22 66 48 109 64 40 15
88 41 109 57 20 16 68 41 105 55 38 14 87 40 109 57 37 30 139 78 165 79 6 0
31 15 56 34 57 43 78 54 137 72 27 8 72 33 100 55 28 22 77 49 107 60 31 10
80 37 110 60 29 22 84 53 122 68 37 15 83 39 102 54 19 14 68 40 109 57 41 18
91 44 110 60 20 15 65 38 100 50 36 13 88 41 117 62 28 21 88 54 132 73 45 18
94 44 111 58 16 14 64 37 107 51 102 34 131 78 81 122 -35 31 -208 132 -253
147 -23 8 -67 33 -99 55 -32 23 -87 51 -122 62 -36 12 -77 32 -92 45 -38 32
-99 62 -153 75 -28 7 -67 29 -100 56 -33 27 -79 52 -119 66 -36 11 -83 36
-105 53 -50 41 -70 51 -142 73 -32 10 -79 34 -105 54 -26 20 -76 46 -111 57
-36 12 -87 37 -113 56 -27 19 -71 42 -99 51 -70 23 -105 42 -140 74 -16 15
-65 41 -108 58 -43 18 -96 46 -117 65 -22 18 -68 42 -108 55 -38 12 -87 35
-108 50 -71 51 -121 61 -187 38z m157 -71 c28 -19 77 -42 108 -51 33 -10 75
-32 101 -54 25 -20 58 -42 74 -47 15 -6 49 -18 74 -27 25 -9 65 -32 87 -52 24
-20 71 -45 112 -59 39 -13 88 -37 108 -53 47 -37 73 -50 131 -68 26 -7 71 -32
101 -54 32 -24 82 -49 120 -60 38 -11 88 -36 119 -59 30 -22 82 -50 116 -61
34 -11 80 -36 101 -54 49 -41 72 -54 137 -73 29 -8 68 -27 87 -42 46 -36 104
-66 158 -80 23 -7 57 -25 75 -40 36 -32 93 -62 151 -81 22 -7 67 -30 100 -51
34 -21 74 -46 90 -56 16 -10 31 -23 33 -29 7 -20 -26 -43 -82 -60 -30 -8 -78
-32 -107 -52 -29 -20 -82 -47 -117 -59 -35 -13 -83 -41 -107 -62 -29 -25 -65
-44 -113 -59 -44 -13 -88 -35 -120 -60 -28 -22 -79 -50 -114 -61 -35 -12 -83
-38 -111 -61 -26 -22 -69 -46 -96 -54 -66 -20 -104 -41 -122 -68 -16 -24 -46
-39 -141 -73 -26 -9 -66 -32 -88 -51 -22 -19 -66 -41 -96 -50 -30 -9 -82 -35
-117 -58 -34 -24 -85 -51 -114 -60 -29 -10 -76 -34 -105 -53 -64 -43 -122 -73
-141 -73 -8 0 -45 -21 -83 -47 -37 -25 -94 -57 -127 -69 -32 -13 -78 -41 -102
-64 l-44 -40 -39 0 c-30 0 -50 9 -95 44 -34 26 -79 50 -114 60 -37 10 -76 31
-112 61 -30 25 -58 45 -62 45 -26 0 -121 46 -154 73 -21 19 -71 46 -110 61
-39 15 -89 42 -110 60 -21 18 -70 43 -107 55 -42 14 -85 38 -113 62 -30 26
-67 45 -115 59 -54 16 -83 32 -118 65 -33 31 -62 47 -96 56 -63 15 -101 34
-147 73 -20 18 -61 40 -91 49 -30 10 -74 32 -98 51 -56 42 -79 54 -139 72 -26
8 -70 32 -97 54 -31 26 -71 47 -113 60 -42 12 -82 33 -108 56 -26 22 -67 43
-106 55 -68 20 -90 37 -84 65 4 23 151 113 220 135 75 24 107 41 138 73 15 17
53 35 105 51 58 18 90 34 111 56 37 39 64 53 143 73 43 11 80 29 113 55 28 23
78 49 116 62 37 12 90 38 117 59 28 21 68 43 90 50 60 19 97 39 132 72 18 18
60 40 102 53 44 15 89 38 118 63 46 38 68 48 160 72 23 6 60 26 82 44 23 19
62 42 88 52 90 32 138 55 159 75 12 11 54 33 93 49 39 16 90 42 114 58 23 16
49 32 57 35 30 12 83 -3 134 -38z M9250 4071 c-69 -8 -95 -23 -109 -61 -7 -21
-11 -424 -11 -1272 l-2 -1241 21 -21 22 -21 121 3 c140 4 167 13 194 69 l19
38 3 545 3 545 17 30 c9 17 31 55 47 84 17 30 41 67 55 83 31 35 168 92 287
118 l88 19 195 -1 c107 0 245 -5 305 -9 l110 -9 75 -36 c96 -45 132 -73 163
-126 45 -77 48 -131 46 -691 l-3 -522 25 -49 c34 -67 67 -91 127 -88 134 5
201 43 222 123 16 60 8 1213 -9 1295 -15 70 -74 173 -164 283 l-57 70 -43 11
c-23 6 -60 21 -82 32 -109 57 -134 66 -205 73 -41 4 -84 9 -95 11 -41 9 -616
3 -689 -6 -76 -10 -107 -21 -169 -63 -18 -12 -72 -35 -120 -52 l-87 -30 -17
18 -18 18 -5 367 -6 367 -16 36 c-30 68 -73 79 -238 60z m176 -44 l26 -23 2
-415 1 -415 18 -27 c28 -42 79 -38 141 13 29 24 71 46 105 56 31 9 81 32 113
51 31 19 75 39 97 44 23 5 179 10 349 11 335 1 389 -4 510 -53 40 -16 103 -36
139 -44 79 -18 80 -19 148 -110 73 -97 122 -199 145 -303 l20 -87 0 -562 0
-563 -27 -30 c-19 -21 -46 -35 -86 -45 -90 -23 -121 -20 -151 16 -14 17 -26
40 -27 52 0 12 -1 274 -2 582 -2 416 -6 569 -15 596 -26 78 -78 130 -205 207
-77 47 -163 55 -545 49 -351 -4 -372 -8 -477 -70 -93 -55 -104 -65 -126 -110
-12 -23 -36 -58 -55 -77 -18 -19 -41 -53 -51 -75 l-18 -40 -2 -525 c-1 -289
-2 -535 -2 -546 -1 -12 -9 -32 -19 -45 l-19 -22 -69 -2 c-38 -1 -88 -6 -110
-10 l-42 -7 -18 27 -17 27 11 87 c9 63 12 412 12 1214 l0 1125 18 21 c11 13
41 26 82 35 95 20 116 19 146 -7z M7330 3718 c-26 -14 -51 -37 -62 -58 l-19
-35 6 -91 c10 -152 -10 -174 -161 -177 -119 -3 -142 -15 -174 -90 -18 -41 -21
-64 -17 -112 5 -70 30 -130 61 -148 11 -6 66 -14 121 -18 107 -6 138 -18 155
-59 6 -16 12 -201 14 -500 l4 -475 27 -95 c35 -120 42 -134 115 -219 40 -46
70 -72 89 -76 16 -3 60 -25 97 -47 l67 -41 126 -19 126 -20 188 7 c202 6 250
16 318 62 24 16 67 38 94 48 66 24 102 50 122 88 8 17 37 59 63 93 60 78 68
118 74 387 l6 209 -16 29 c-10 20 -25 32 -47 36 -33 7 -43 7 -169 5 l-77 -2
-28 -24 -27 -24 -1 -188 c0 -145 -4 -196 -15 -219 -19 -37 -111 -100 -169
-115 -64 -16 -352 -12 -406 7 -69 23 -128 82 -161 160 l-29 68 -3 420 c-1 231
0 430 3 442 3 13 17 31 32 40 l27 18 481 5 480 5 33 18 c49 27 66 74 59 168
-6 96 -24 132 -77 153 l-40 16 -448 0 -447 0 -35 18 c-22 10 -42 32 -54 56
l-19 39 12 49 c6 27 11 70 11 95 l0 46 -35 33 c-42 39 -88 54 -170 54 -43 0
-73 -6 -105 -22z m155 -19 c25 -6 56 -23 71 -37 l26 -26 -5 -41 c-3 -22 -9
-64 -13 -93 -5 -39 -2 -64 10 -97 l17 -44 54 -27 54 -26 444 1 443 0 34 -17
c43 -21 62 -72 58 -156 l-3 -59 -28 -21 -28 -21 -492 -5 c-519 -5 -519 -5
-551 -52 l-16 -22 0 -442 0 -442 36 -69 c69 -129 105 -176 159 -203 l50 -25
221 0 221 0 68 36 c38 19 77 46 87 60 29 39 41 123 42 294 1 88 5 166 9 173
15 23 53 31 148 33 l92 2 25 -28 24 -29 -8 -60 c-4 -34 -7 -115 -5 -181 3
-152 -11 -204 -83 -320 -68 -108 -110 -150 -168 -165 -24 -7 -71 -27 -106 -47
l-63 -35 -112 -14 c-64 -9 -163 -14 -232 -12 l-120 3 -150 48 c-211 68 -221
73 -255 126 -17 25 -43 65 -59 89 -21 30 -33 69 -46 136 l-17 95 -1 485 -2
485 -28 29 c-37 38 -99 54 -180 46 -115 -11 -154 25 -149 139 3 87 22 134 59
148 17 6 61 8 113 4 l85 -6 35 18 c19 10 43 34 53 53 l18 35 -5 110 -6 110 18
22 c17 22 74 52 100 53 7 0 33 -5 57 -11z M5977 3364 c-1 -2 -65 -4 -141 -5
-75 0 -170 -5 -209 -10 l-72 -9 -68 -47 c-51 -34 -80 -47 -116 -51 l-48 -4
-51 50 c-57 58 -82 67 -154 58 -95 -13 -157 -60 -179 -135 -7 -24 -9 -302 -7
-856 l3 -820 14 -28 c19 -35 48 -42 181 -42 l108 0 22 20 c12 11 34 40 48 64
l25 44 -1 541 -2 542 46 89 c25 50 52 97 60 106 8 8 60 38 116 65 l103 49 175
1 c96 1 216 -1 266 -5 l92 -7 40 -28 c23 -15 56 -35 74 -45 53 -26 69 -67 79
-196 9 -121 18 -147 73 -221 42 -57 80 -78 143 -79 67 0 99 23 138 100 l30 60
-2 115 c-3 118 -22 254 -49 348 -10 37 -32 72 -74 121 l-59 69 -108 57 c-68
36 -132 62 -173 70 -57 12 -315 27 -323 19z m379 -91 c49 -22 105 -46 124 -54
19 -7 68 -44 108 -83 91 -87 97 -107 113 -350 16 -241 0 -311 -76 -336 l-34
-11 -34 16 c-53 25 -95 105 -112 211 -17 109 -48 209 -72 236 -28 32 -120 98
-158 114 -27 11 -92 14 -293 14 -295 0 -336 -7 -445 -71 l-68 -40 -27 -51
c-15 -28 -42 -71 -61 -96 -18 -25 -37 -59 -43 -76 -5 -18 -8 -260 -7 -566 l3
-536 -19 -31 c-26 -45 -63 -58 -119 -44 -25 6 -60 11 -79 11 -22 0 -41 8 -53
21 l-19 21 -3 807 -3 807 23 34 c24 36 89 75 146 86 l33 7 60 -63 60 -62 54 4
c52 4 68 11 230 97 l50 26 230 5 c126 3 269 2 316 -1 l86 -6 89 -40z M12185
3355 c-104 -14 -130 -23 -172 -59 -17 -14 -51 -35 -77 -46 -26 -11 -63 -32
-82 -46 -50 -38 -189 -213 -202 -254 -42 -131 -58 -658 -27 -900 24 -184 28
-197 82 -264 101 -125 192 -212 236 -226 23 -8 76 -28 117 -46 147 -63 209
-69 755 -69 399 0 448 6 568 66 43 21 86 39 97 39 39 0 87 35 163 119 149 165
157 180 156 296 -1 100 -8 123 -42 148 l-27 21 -97 2 c-156 4 -195 -15 -232
-110 -9 -25 -34 -65 -55 -87 -96 -101 -199 -119 -683 -119 l-332 0 -45 15
c-61 21 -205 107 -240 143 -65 69 -74 261 -13 293 14 8 195 11 601 11 320 -1
701 2 848 6 l267 7 23 23 23 23 -1 202 c-2 236 -10 288 -70 416 -24 51 -44 96
-44 99 0 3 -19 26 -42 52 -24 26 -55 63 -71 83 -21 28 -41 40 -83 53 -30 8
-74 31 -98 49 -24 18 -54 39 -67 45 -52 29 -956 40 -1134 15z m1085 -46 c19
-9 50 -29 68 -44 22 -18 56 -32 99 -42 77 -16 84 -21 128 -88 17 -27 42 -59
54 -69 12 -11 28 -45 37 -75 8 -31 27 -83 41 -115 45 -104 54 -154 60 -336 l6
-175 -22 -20 -22 -19 -847 -3 -846 -3 -23 -16 c-33 -21 -43 -54 -43 -144 0
-146 29 -219 104 -257 17 -8 60 -37 96 -64 37 -26 86 -53 112 -59 33 -9 166
-11 470 -7 l423 4 58 18 c41 13 78 35 132 81 l74 64 22 59 c12 33 30 68 41 78
l20 18 97 -3 c53 -2 104 -5 114 -8 26 -8 37 -45 37 -128 l0 -74 -59 -78 c-68
-91 -166 -197 -197 -212 -11 -6 -45 -14 -75 -18 -30 -4 -80 -17 -112 -30 -126
-53 -155 -57 -462 -62 -368 -6 -528 7 -670 53 -55 18 -131 38 -170 45 l-70 13
-80 81 c-73 74 -118 129 -169 209 l-19 29 -9 157 c-13 208 -2 795 14 844 16
45 122 180 192 244 29 26 70 54 92 62 21 7 65 29 96 48 100 60 127 62 678 60
l495 -2 35 -16z M12330 3030 c-63 -4 -128 -13 -143 -19 -16 -6 -69 -48 -117
-93 l-89 -81 -10 -51 c-14 -65 0 -124 34 -153 l26 -23 652 0 c362 0 670 5 692
10 50 11 85 50 85 94 0 48 -62 164 -118 223 -64 67 -111 82 -292 93 -165 11
-549 10 -720 0z m680 -40 c226 -19 289 -50 351 -172 43 -85 37 -128 -23 -147
-21 -6 -260 -11 -660 -12 l-627 -2 -17 13 c-41 35 -36 120 10 164 78 75 134
120 164 133 68 28 571 43 802 23z M145 3338 c-27 -16 -47 -38 -62 -69 l-22
-47 -1 -753 -2 -753 -15 -30 c-8 -17 -22 -38 -30 -48 -9 -9 -13 -31 -11 -54
l3 -37 49 -34 c26 -18 74 -41 105 -50 l56 -16 54 11 c81 17 142 51 166 92 l20
35 5 560 6 560 19 53 c25 72 70 108 205 165 l111 47 102 11 c115 13 529 5 612
-11 28 -6 91 -31 142 -56 71 -35 98 -54 115 -82 l23 -37 5 -617 5 -617 29 -30
c40 -42 80 -58 162 -66 92 -9 134 8 164 69 l20 43 0 580 c0 750 -8 829 -92
930 -24 28 -55 66 -69 85 -21 27 -56 46 -170 95 -79 34 -175 68 -214 75 -48 9
-175 13 -405 13 l-335 0 -84 -18 c-57 -12 -107 -31 -153 -58 -76 -45 -154 -63
-190 -45 -12 6 -33 27 -46 46 -33 50 -81 72 -166 77 l-71 4 -40 -23z m134 -18
c45 -13 78 -44 92 -89 16 -52 47 -81 83 -81 17 0 81 21 141 46 290 120 337
128 693 121 281 -6 274 -4 502 -81 l135 -46 45 -49 c62 -66 114 -132 129 -158
26 -50 30 -147 32 -755 l1 -635 -16 -31 c-21 -40 -50 -47 -142 -34 -83 11
-120 30 -135 69 -6 17 -9 246 -8 619 l1 593 -18 38 c-28 56 -166 147 -255 168
-94 21 -681 22 -780 1 -66 -14 -237 -103 -286 -148 -24 -22 -41 -67 -72 -193
l-20 -80 1 -450 c0 -247 0 -469 0 -492 1 -58 -21 -86 -89 -119 -71 -35 -124
-37 -155 -7 l-21 22 2 858 2 858 15 23 c25 38 65 49 123 32z M3015 3354 c-96
-12 -152 -30 -246 -77 -123 -61 -220 -141 -251 -207 -12 -25 -37 -71 -56 -102
-53 -88 -62 -165 -61 -542 0 -175 4 -355 10 -399 l10 -80 59 -114 c40 -77 81
-139 125 -188 l66 -73 69 -17 c38 -9 89 -29 113 -45 96 -61 185 -70 659 -65
404 5 550 15 630 44 29 10 99 36 155 56 l102 37 69 72 c47 49 74 86 87 121 10
28 38 94 62 147 l44 97 9 88 c12 106 12 515 1 631 l-8 84 -41 78 c-22 42 -48
104 -56 136 -11 43 -24 66 -46 84 -17 14 -52 44 -79 68 -27 23 -77 54 -112 68
-35 15 -77 35 -92 46 -16 11 -49 27 -75 36 l-47 15 -535 2 c-294 1 -548 1
-565 -1z m1110 -56 c22 -9 57 -27 78 -41 20 -14 60 -30 88 -37 33 -8 70 -28
104 -55 29 -24 66 -50 83 -59 41 -21 55 -48 63 -124 4 -41 19 -87 43 -135 45
-91 56 -174 56 -427 0 -254 -10 -326 -59 -441 -22 -52 -43 -112 -47 -134 -10
-61 -29 -90 -104 -165 -47 -47 -81 -72 -107 -79 -21 -6 -94 -26 -163 -45 -69
-20 -186 -44 -260 -55 l-135 -20 -320 1 -320 0 -86 18 c-48 10 -111 32 -140
48 -34 19 -77 33 -114 37 -64 8 -109 26 -118 48 -3 7 -28 43 -56 80 -28 36
-60 90 -71 118 -12 29 -32 71 -46 95 -50 84 -54 122 -53 486 l0 338 15 52 c9
29 28 82 43 118 16 36 35 86 45 111 12 35 35 62 91 112 l75 66 73 22 c39 11
81 26 92 33 24 16 109 43 150 49 17 3 262 4 545 3 l515 -2 40 -16z M3130 3031
l-115 -6 -48 -23 c-62 -31 -171 -143 -205 -212 l-27 -55 -3 -282 c-4 -340 1
-372 66 -468 l47 -70 75 -42 c41 -24 95 -53 120 -65 l45 -23 175 -3 c638 -14
755 -8 817 41 14 12 52 36 82 52 l55 30 38 65 c21 36 51 90 66 120 l27 55 3
175 c2 96 -1 226 -6 289 l-10 114 -41 83 c-44 87 -73 117 -180 184 l-53 33
-137 8 c-152 9 -615 9 -791 0z m875 -55 c28 -9 82 -35 120 -59 l70 -42 37 -74
c20 -41 41 -102 47 -136 14 -76 14 -434 2 -502 -15 -75 -91 -225 -121 -240
-14 -6 -59 -29 -100 -50 l-75 -38 -315 2 c-173 2 -344 3 -380 3 -36 1 -92 0
-124 -1 l-59 -1 -66 30 c-36 17 -87 40 -112 51 l-47 19 -41 70 c-22 39 -46 83
-52 98 -15 40 -15 590 0 627 21 54 100 152 148 184 115 77 153 82 658 78 l360
-3 50 -16z M14845 3350 c-86 -14 -114 -25 -174 -70 -70 -53 -114 -52 -174 4
-45 42 -66 49 -162 53 -104 5 -128 -4 -159 -57 l-21 -35 -1 -795 c-1 -437 2
-828 6 -869 l7 -75 27 -23 27 -23 107 0 c124 0 149 9 176 63 l18 38 0 477 c0
262 4 525 7 584 l8 107 25 38 c14 21 42 54 61 74 51 51 184 126 248 140 76 17
469 6 526 -14 59 -20 168 -110 183 -150 6 -17 15 -93 19 -167 9 -154 17 -182
63 -210 l33 -21 98 3 99 3 24 28 c40 47 47 95 39 302 -3 105 -11 206 -17 225
-6 19 -28 60 -48 91 -21 31 -47 73 -58 95 -22 43 -55 66 -117 83 -22 6 -65 26
-95 46 -30 19 -71 40 -90 46 -47 13 -609 21 -685 9z m564 -40 l94 -10 71 -39
c39 -21 87 -42 106 -46 73 -15 100 -35 132 -99 17 -34 43 -80 59 -102 40 -58
48 -107 50 -295 l2 -164 -16 -32 c-9 -17 -22 -35 -28 -39 -13 -8 -172 -6 -194
2 -7 3 -22 18 -32 32 l-18 27 -1 140 -1 140 -21 41 c-22 44 -104 113 -168 141
l-39 18 -300 0 -300 0 -33 -18 c-75 -41 -205 -141 -233 -179 -16 -23 -34 -57
-40 -77 -8 -25 -13 -215 -15 -603 l-3 -567 -16 -30 c-8 -17 -23 -32 -33 -32
-70 -5 -171 -4 -188 2 -12 4 -27 22 -33 40 -14 41 -16 1635 -1 1673 5 14 21
32 35 42 l25 16 78 -11 77 -11 57 -40 c78 -55 114 -54 210 4 64 38 129 65 193
79 39 9 432 6 524 -3z M16245 3349 c-35 -10 -78 -52 -91 -89 -4 -14 -11 -376
-15 -805 -4 -429 -11 -808 -14 -843 -13 -123 32 -158 192 -150 102 5 171 31
200 74 l18 28 5 571 6 570 17 50 c9 28 29 63 44 77 43 40 155 94 273 130 l65
20 265 4 c336 5 402 -5 545 -77 74 -38 93 -54 114 -99 l16 -35 1 -593 1 -593
20 -27 c48 -65 154 -110 235 -99 49 7 92 45 113 101 l16 41 -3 605 -4 605 -22
100 c-13 56 -32 114 -45 131 -114 160 -114 160 -257 219 -36 15 -92 39 -125
53 l-60 25 -175 9 c-96 6 -276 8 -400 5 -256 -6 -336 -19 -423 -71 -69 -42
-109 -56 -159 -56 l-40 0 -53 54 -54 54 -51 11 c-59 13 -112 13 -155 0z m163
-56 c15 -10 38 -42 51 -70 13 -28 33 -55 45 -60 43 -19 112 0 296 79 151 66
228 78 490 78 289 0 401 -12 503 -54 45 -19 114 -44 152 -57 39 -12 82 -30 96
-40 39 -27 147 -197 158 -249 6 -26 11 -312 12 -685 l2 -640 -16 -31 c-9 -17
-30 -37 -46 -44 l-31 -12 -72 23 c-40 13 -86 36 -103 51 l-30 26 5 79 c2 43 4
294 5 558 0 500 -6 585 -43 631 -22 27 -154 112 -207 132 l-40 16 -330 4
c-434 5 -471 -1 -615 -88 -117 -71 -130 -81 -146 -111 -9 -18 -25 -74 -35
-126 l-19 -95 0 -494 0 -495 -15 -28 c-28 -55 -164 -96 -237 -72 -51 17 -61
46 -48 140 7 48 12 349 13 831 l2 756 18 27 c10 16 28 32 40 37 34 15 115 5
145 -17z M19500 2679 c-114 -25 -322 -140 -338 -187 -10 -29 -1 -58 22 -75 6
-4 40 -16 76 -27 37 -11 88 -37 117 -59 29 -21 80 -48 113 -59 34 -12 82 -37
108 -55 26 -19 74 -46 108 -59 33 -14 83 -41 111 -60 28 -19 82 -47 119 -62
38 -16 89 -43 114 -61 25 -18 75 -45 111 -59 36 -15 86 -44 113 -66 30 -25 69
-46 108 -56 36 -10 83 -34 117 -59 31 -23 83 -52 116 -64 33 -12 77 -36 97
-52 21 -16 74 -45 118 -63 44 -19 96 -48 114 -64 19 -16 63 -39 98 -51 40 -13
76 -33 94 -52 34 -36 82 -62 144 -79 25 -7 71 -31 104 -54 l59 -41 56 0 56 0
53 42 c29 24 75 49 102 57 61 18 86 31 132 70 20 18 66 42 102 55 37 13 84 36
107 53 22 16 73 44 113 62 40 18 96 49 124 69 28 19 79 44 113 56 34 11 81 36
105 56 23 20 73 47 110 61 37 14 86 40 109 59 23 20 67 44 97 54 72 25 109 44
132 70 10 11 50 32 90 47 39 15 94 45 122 66 28 21 79 48 113 59 35 12 84 37
109 57 26 20 82 50 125 68 42 18 90 43 107 57 16 14 50 32 75 41 25 9 65 23
90 32 48 17 63 43 50 84 -12 37 -178 136 -288 172 l-97 31 -88 -29 c-49 -16
-114 -47 -150 -72 -35 -23 -92 -53 -128 -66 -35 -13 -88 -42 -116 -64 -29 -22
-79 -48 -111 -58 -32 -10 -75 -32 -95 -50 -42 -35 -80 -56 -137 -74 -22 -7
-62 -28 -88 -48 -27 -19 -80 -48 -119 -63 -39 -16 -88 -43 -109 -60 -22 -17
-75 -46 -119 -64 -44 -18 -97 -48 -119 -67 -23 -19 -68 -43 -108 -56 -42 -13
-86 -36 -112 -58 -30 -26 -72 -46 -149 -71 -121 -40 -218 -51 -289 -34 -135
34 -216 64 -261 99 -26 20 -78 49 -116 64 -39 16 -89 45 -113 64 -23 19 -75
46 -114 59 -39 14 -91 41 -115 60 -23 19 -75 48 -114 64 -39 16 -94 45 -123
65 -29 20 -79 45 -112 56 -33 11 -77 35 -99 52 -21 17 -71 43 -112 58 -40 15
-92 44 -115 63 -23 20 -72 48 -108 62 -37 14 -90 43 -119 64 -77 58 -227 104
-292 90z M8235 921 l-150 -6 -87 -43 -87 -42 -48 -67 -48 -67 -3 -141 c-2 -77
-1 -165 3 -195 l7 -54 75 -78 c52 -53 90 -83 122 -95 l46 -18 220 0 220 0 35
16 c79 36 160 135 160 196 0 32 -28 73 -50 73 -35 0 -79 -32 -104 -75 -41 -69
-63 -75 -268 -75 -229 1 -269 15 -311 110 -16 35 -21 70 -22 164 -2 66 1 130
6 143 4 12 26 31 48 43 22 11 63 40 90 64 38 34 63 47 107 56 60 13 214 6 246
-11 9 -5 33 -34 53 -63 50 -76 150 -127 183 -94 30 30 -5 140 -56 177 -40 28
-162 78 -202 83 -19 2 -102 2 -185 -1z M10069 877 c-54 -26 -103 -57 -109 -67
-6 -11 -14 -50 -19 -88 -5 -38 -15 -82 -24 -98 -27 -54 -29 -99 -8 -181 11
-43 23 -99 26 -125 8 -59 34 -92 118 -147 80 -52 129 -61 327 -61 191 0 243 9
339 57 58 30 79 46 94 75 31 61 3 108 -65 108 l-40 0 -43 -46 -42 -47 -234 0
c-129 0 -245 3 -257 7 -15 5 -32 26 -48 59 -31 66 -31 102 -1 122 l23 15 280
4 c374 5 447 22 448 108 0 48 -34 199 -50 226 -8 12 -60 44 -117 71 l-102 49
-198 4 -198 4 -100 -49z m489 -77 c105 -53 148 -124 102 -170 l-20 -20 -263 0
-263 0 -22 16 c-38 26 -29 62 31 120 72 69 114 82 258 83 l116 1 61 -30z
M11163 887 c-48 -22 -96 -47 -107 -56 -27 -23 -46 -74 -46 -125 0 -56 34 -168
57 -188 47 -41 59 -43 343 -43 203 0 281 -3 297 -13 28 -15 47 -82 40 -137 -7
-51 -39 -79 -80 -71 -16 3 -128 6 -249 6 l-220 0 -43 47 c-34 37 -49 46 -75
46 -44 0 -63 -26 -56 -78 l5 -40 55 -52 c32 -30 72 -56 93 -62 22 -6 141 -11
274 -11 263 0 307 7 372 61 49 41 67 76 74 152 7 85 -9 139 -60 194 -67 74
-77 76 -373 82 l-262 6 -21 19 c-29 26 -26 64 8 118 48 75 63 81 221 86 l138
4 93 -50 c52 -28 109 -62 128 -76 56 -42 87 -31 97 36 8 48 -22 81 -120 130
l-81 41 -70 3 c-38 2 -132 5 -207 8 l-137 3 -88 -40z M12295 909 c-153 -81
-171 -97 -185 -162 -22 -105 30 -216 123 -261 l33 -15 245 6 244 6 33 -17 c59
-31 82 -129 41 -180 l-20 -26 -258 0 c-281 0 -272 -2 -310 63 -13 20 -31 42
-42 47 -24 14 -67 2 -79 -20 -14 -26 -12 -92 4 -112 24 -32 150 -118 181 -124
17 -3 146 -4 286 -2 l254 3 45 25 c54 30 86 88 103 184 l11 65 -44 87 c-24 47
-54 93 -67 101 l-23 15 -237 4 c-357 7 -373 10 -373 77 0 63 54 118 146 151
52 18 286 6 329 -17 17 -8 55 -41 85 -71 61 -63 97 -73 124 -34 16 23 21 83
10 113 -4 8 -49 36 -101 62 l-94 46 -217 1 -217 1 -30 -16z M6957 895 c-113
-39 -146 -67 -147 -126 0 -45 15 -59 65 -59 30 0 58 10 101 36 110 68 112 69
219 69 l100 0 45 -22 c132 -66 195 -109 198 -134 6 -50 -12 -53 -267 -61 -188
-5 -252 -3 -313 9 l-77 15 -27 -14 c-18 -8 -47 -46 -81 -103 l-53 -89 0 -51
c0 -64 18 -94 101 -173 l65 -61 53 -12 c78 -17 453 -7 506 13 22 9 68 19 102
23 41 4 67 13 79 26 l17 19 -8 47 c-4 27 -8 140 -9 253 l-1 205 -23 50 c-33
71 -53 89 -147 129 l-83 36 -174 -1 -173 0 -68 -24z m505 -435 c44 -13 68 -42
60 -73 -9 -36 -61 -106 -90 -121 -22 -11 -70 -13 -237 -10 -251 6 -270 8 -301
39 -19 19 -24 35 -24 74 0 58 14 76 68 90 20 5 46 12 57 15 34 9 428 -3 467
-14z M9115 906 c-22 -7 -77 -32 -122 -54 -61 -31 -87 -51 -100 -74 l-18 -33 0
-220 0 -220 18 -32 c9 -18 32 -40 50 -49 17 -9 51 -34 75 -55 61 -53 110 -62
328 -57 l179 3 45 23 c25 12 68 39 95 60 82 62 96 148 32 196 l-28 21 -27 -15
c-17 -10 -33 -33 -45 -65 -10 -28 -27 -58 -38 -67 l-21 -18 -229 0 -228 0 -25
22 c-32 29 -46 108 -46 266 0 133 12 170 67 206 21 14 55 40 76 58 l39 33 106
3 c59 2 132 -1 162 -5 l55 -8 20 -33 c61 -100 83 -128 106 -136 64 -22 104 22
90 100 -14 74 -30 89 -126 113 -22 6 -58 20 -80 31 l-39 20 -166 -1 c-104 0
-180 -5 -205 -13z"/></g></svg>